<?xml version="1.0" standalone="no"?><!DOCTYPE svg PUBLIC "-//W3C//DTD SVG 1.1//EN" "http://www.w3.org/Graphics/SVG/1.1/DTD/svg11.dtd"><svg t="1666790399008" class="icon" viewBox="0 0 1024 1024" version="1.1" xmlns="http://www.w3.org/2000/svg" p-id="36433" xmlns:xlink="http://www.w3.org/1999/xlink" width="200" height="200"><path d="M897.3 436.5c-2.7-3-5.5-5.9-8.3-8.8-1.4-1.4-2.8-2.8-4.2-4.1-0.5-0.5-1-0.9-1.4-1.3-1-0.9-1.9-1.8-2.9-2.7-0.6-0.5-1.2-1-1.8-1.6-0.9-0.8-1.8-1.6-2.6-2.3-0.6-0.5-1.3-1.1-1.9-1.6-0.9-0.7-1.7-1.5-2.6-2.2-0.7-0.5-1.3-1.1-2-1.6-0.9-0.7-1.7-1.4-2.6-2.1-0.7-0.5-1.4-1.1-2.1-1.6-0.9-0.7-1.7-1.3-2.6-2-0.7-0.5-1.4-1-2.1-1.6-0.9-0.6-1.7-1.3-2.6-1.9-0.7-0.5-1.4-1-2.2-1.5-0.9-0.6-1.7-1.2-2.6-1.8-0.7-0.5-1.5-1-2.2-1.5-0.9-0.6-1.8-1.2-2.7-1.7-0.7-0.5-1.5-0.9-2.2-1.4-0.9-0.6-1.8-1.1-2.7-1.7-0.7-0.4-1.5-0.9-2.2-1.3-0.9-0.5-1.8-1.1-2.8-1.6-0.7-0.4-1.5-0.9-2.2-1.3-0.9-0.5-1.9-1-2.8-1.5-0.8-0.4-1.5-0.8-2.3-1.2-1-0.5-1.9-1-2.9-1.5-0.7-0.4-1.5-0.8-2.2-1.1-1-0.5-2-1-3-1.4-0.7-0.4-1.5-0.7-2.2-1.1-1-0.5-2-0.9-3-1.4-0.7-0.3-1.5-0.7-2.2-1-1.1-0.5-2.1-0.9-3.2-1.4l-2.1-0.9c-1.1-0.5-2.2-0.9-3.4-1.3-0.7-0.3-1.3-0.5-2-0.8-1.2-0.5-2.5-0.9-3.7-1.4-0.6-0.2-1.1-0.4-1.7-0.6-1.6-0.6-3.2-1.1-4.8-1.6-0.2-0.1-0.5-0.2-0.7-0.2-1.8-0.6-3.7-1.2-5.6-1.8-0.3-0.1-0.6-0.2-0.8-0.2-1.6-0.5-3.1-0.9-4.7-1.4-0.6-0.2-1.2-0.3-1.8-0.5-1.3-0.3-2.5-0.7-3.8-1-0.7-0.2-1.4-0.3-2.1-0.5-1.2-0.3-2.3-0.6-3.5-0.8-0.8-0.2-1.6-0.3-2.3-0.5-1.1-0.2-2.2-0.5-3.3-0.7-0.8-0.2-1.6-0.3-2.4-0.5l-3.3-0.6c-0.8-0.1-1.7-0.3-2.5-0.4-1.1-0.2-2.1-0.4-3.2-0.5-0.9-0.1-1.7-0.3-2.6-0.4-1.1-0.1-2.1-0.3-3.2-0.4-0.9-0.1-1.8-0.2-2.6-0.3-1.1-0.1-2.1-0.2-3.2-0.3l-2.7-0.3c-1-0.1-2.1-0.2-3.1-0.3-0.9-0.1-1.8-0.1-2.7-0.2-1-0.1-2.1-0.1-3.1-0.2-0.9 0-1.8-0.1-2.7-0.1-0.5 0-0.9-0.1-1.4-0.1-13.2-45.1-39.4-85.8-75.6-116.6-43.8-37.3-99.6-57.8-157.1-57.8-64.7 0-125.6 25.2-171.4 71-44.2 44.2-69.2 102.5-70.9 164.7-105.7 12.1-188 102.1-188 211 0 117.1 95.3 212.3 212.3 212.3h441.2c64.7 0 125.6-25.2 171.4-71 45.8-45.8 71-106.7 71-171.4 0.1-60.7-22.1-118-62.6-162.6z m-181.2 341H277.8c-82 0-149.6-65.9-149.8-147.9-0.2-82 66.4-148.8 148.3-148.8 2.4 0 4.9 0.1 7.4 0.2l37.6 1.8-4.3-37.4c-0.8-6.9-1.2-13.8-1.2-20.5 0-98.4 80-178.4 178.4-178.4 42.4 0 83.4 15.1 115.6 42.5 23.5 20 41.2 45.6 51.8 74.1-43.4 10.2-83.2 32.2-115.6 64.6-37 37-60.5 83.7-68.2 134.4-3 19.4 12 37 31.6 37 15.9 0 29.2-11.6 31.7-27.3C554 489.4 623.2 425.5 708 421c0.5 0 0.9 0 1.4-0.1 0.9 0 1.9-0.1 2.8-0.1h1.4c1.4 0 2.7-0.1 4.1-0.1 98.4 0 178.5 80.1 178.4 178.5-0.1 98.1-82 178.3-180 178.3z" p-id="36434" fill="#ffffff"></path></svg>